<svg width="693" height="442" viewBox="0 0 693 442" fill="none" xmlns="http://www.w3.org/2000/svg">
<path d="M306.097 79.9299L329.447 36.9299C338.492 20.2717 326.432 0 307.477 0H136.971C128.019 0 119.751 4.78614 115.293 12.5485L4.30218 205.787C-0.206851 213.637 -0.119438 223.312 4.53069 231.079L123.221 429.341C127.736 436.883 135.881 441.5 144.671 441.5H346.091C355.009 441.5 363.252 436.749 367.723 429.032L526.755 154.532C536.411 137.866 524.385 117 505.124 117H458.508C449.537 117 441.253 121.807 436.802 129.597L319.198 335.403C314.747 343.193 306.463 348 297.492 348H192.411C183.492 348 175.248 343.248 170.778 335.529L110.371 231.228C105.822 223.372 105.888 213.667 110.545 205.874L170.724 105.175C175.237 97.6238 183.387 93 192.184 93H284.127C293.293 93 301.723 87.9845 306.097 79.9299Z" fill="url(#paint0_linear_102_3)"/>
<path d="M284.504 324.5H235.376C216.115 324.5 204.089 303.634 213.745 286.967L372.777 12.4675C377.248 4.7508 385.491 0 394.409 0H615.851C624.358 0 632.281 4.32549 636.881 11.4811L688.724 92.1258C693.803 100.027 694.025 110.109 689.298 118.226L605.403 262.287C600.834 270.134 600.878 279.841 605.519 287.645L674.538 403.723C684.447 420.388 672.438 441.5 653.05 441.5H593.391C583.953 441.5 575.319 436.185 571.069 427.758L497.359 281.617C493.687 274.336 493.797 265.721 497.653 258.536L566.736 129.823C575.675 113.168 563.611 93 544.709 93H445.996C437.031 93 428.752 97.8006 424.299 105.581L306.201 311.919C301.748 319.699 293.469 324.5 284.504 324.5Z" fill="url(#paint1_linear_102_3)"/>
<defs>
<linearGradient id="paint0_linear_102_3" x1="347" y1="0" x2="347" y2="441.5" gradientUnits="userSpaceOnUse">
<stop stop-color="#1C83BD"/>
<stop offset="1" stop-color="#00C2FF"/>
</linearGradient>
<linearGradient id="paint1_linear_102_3" x1="347" y1="0" x2="347" y2="441.5" gradientUnits="userSpaceOnUse">
<stop stop-color="#1C83BD"/>
<stop offset="1" stop-color="#00C2FF"/>
</linearGradient>
</defs>
</svg>
