<svg width="1375" height="885" viewBox="0 0 1375 885" fill="none" xmlns="http://www.w3.org/2000/svg">
<g clip-path="url(#clip0_6_4)">
<path d="M0.5 0.5L1380 890.5" stroke="url(#paint0_linear_6_4)"/>
<path d="M42 -36L1421.5 854" stroke="url(#paint1_linear_6_4)"/>
<path d="M92 -78L1471.5 812" stroke="url(#paint2_linear_6_4)"/>
<path d="M141 -118L1520.5 772" stroke="url(#paint3_linear_6_4)"/>
<path d="M188 -149L1567.5 741" stroke="url(#paint4_linear_6_4)"/>
<path d="M227 -199L1606.5 691" stroke="url(#paint5_linear_6_4)"/>
<path d="M277 -230L1656.5 660" stroke="url(#paint6_linear_6_4)"/>
<path d="M334 -262L1713.5 628" stroke="url(#paint7_linear_6_4)"/>
<path d="M400 -290L1779.5 600" stroke="url(#paint8_linear_6_4)"/>
<path d="M452 -319L1831.5 571" stroke="url(#paint9_linear_6_4)"/>
<path d="M510 -340L1889.5 550" stroke="url(#paint10_linear_6_4)"/>
<path d="M560 -364L1939.5 526" stroke="url(#paint11_linear_6_4)"/>
<path d="M594 -395L1973.5 495" stroke="url(#paint12_linear_6_4)"/>
<path d="M-41 32L1338.5 922" stroke="url(#paint13_linear_6_4)"/>
<path d="M-96 66L1283.5 956" stroke="url(#paint14_linear_6_4)"/>
<path d="M-130 105L1249.5 995" stroke="url(#paint15_linear_6_4)"/>
<path d="M-180 155L1199.5 1045" stroke="url(#paint16_linear_6_4)"/>
<path d="M-222 199L1157.5 1089" stroke="url(#paint17_linear_6_4)"/>
<path d="M-259 246L1120.5 1136" stroke="url(#paint18_linear_6_4)"/>
<path d="M-290 296L1089.5 1186" stroke="url(#paint19_linear_6_4)"/>
<path d="M-337 351L1042.5 1241" stroke="url(#paint20_linear_6_4)"/>
<path d="M-376 393L1003.5 1283" stroke="url(#paint21_linear_6_4)"/>
<path d="M623 -423L2002.5 467" stroke="url(#paint22_linear_6_4)"/>
<path d="M-413 440L966.5 1330" stroke="url(#paint23_linear_6_4)"/>
<path d="M-502 446L877.5 1336" stroke="url(#paint24_linear_6_4)"/>
<path d="M-533 477L846.5 1367" stroke="url(#paint25_linear_6_4)"/>
<path d="M-180 155L1199.5 1045" stroke="url(#paint26_linear_6_4)"/>
<path d="M1357 0L-14 885" stroke="url(#paint27_linear_6_4)"/>
<path d="M1323 -50L-48 835" stroke="url(#paint28_linear_6_4)"/>
<path d="M1283 -84L-88 801" stroke="url(#paint29_linear_6_4)"/>
<path d="M1252 -123L-119 762" stroke="url(#paint30_linear_6_4)"/>
<path d="M1231 -164L-140 721" stroke="url(#paint31_linear_6_4)"/>
<path d="M1192 -214L-179 671" stroke="url(#paint32_linear_6_4)"/>
<path d="M1156 -263L-215 622" stroke="url(#paint33_linear_6_4)"/>
<path d="M1120 -301L-251 584" stroke="url(#paint34_linear_6_4)"/>
<path d="M1061 -344L-310 541" stroke="url(#paint35_linear_6_4)"/>
<path d="M999 -378L-372 507" stroke="url(#paint36_linear_6_4)"/>
<path d="M960 -399L-411 486" stroke="url(#paint37_linear_6_4)"/>
<path d="M913 -419L-458 466" stroke="url(#paint38_linear_6_4)"/>
<path d="M866 -442L-505 443" stroke="url(#paint39_linear_6_4)"/>
<path d="M825 -465L-546 420" stroke="url(#paint40_linear_6_4)"/>
<path d="M1399 24L28 909" stroke="url(#paint41_linear_6_4)"/>
<path d="M1428 61L57 946" stroke="url(#paint42_linear_6_4)"/>
<path d="M1452 99L81 984" stroke="url(#paint43_linear_6_4)"/>
<path d="M1481 141L110 1026" stroke="url(#paint44_linear_6_4)"/>
<path d="M1510 180L139 1065" stroke="url(#paint45_linear_6_4)"/>
<path d="M1570 204L199 1089" stroke="url(#paint46_linear_6_4)"/>
<path d="M1614 248L243 1133" stroke="url(#paint47_linear_6_4)"/>
<path d="M1645 287L274 1172" stroke="url(#paint48_linear_6_4)"/>
<path d="M1684 334L313 1219" stroke="url(#paint49_linear_6_4)"/>
<path d="M1715 381L344 1266" stroke="url(#paint50_linear_6_4)"/>
<path d="M1746 420L375 1305" stroke="url(#paint51_linear_6_4)"/>
<path d="M1805 443L434 1328" stroke="url(#paint52_linear_6_4)"/>
<path d="M1842 467L471 1352" stroke="url(#paint53_linear_6_4)"/>
<path d="M1863 503L492 1388" stroke="url(#paint54_linear_6_4)"/>
</g>
<defs>
<linearGradient id="paint0_linear_6_4" x1="690.25" y1="0.5" x2="690.25" y2="890.5" gradientUnits="userSpaceOnUse">
<stop stop-color="#BD4C1C"/>
<stop offset="1" stop-color="#FFA900"/>
</linearGradient>
<linearGradient id="paint1_linear_6_4" x1="731.75" y1="-36" x2="731.75" y2="854" gradientUnits="userSpaceOnUse">
<stop stop-color="#BD4C1C"/>
<stop offset="1" stop-color="#FFA900"/>
</linearGradient>
<linearGradient id="paint2_linear_6_4" x1="781.75" y1="-78" x2="781.75" y2="812" gradientUnits="userSpaceOnUse">
<stop stop-color="#BD4C1C"/>
<stop offset="1" stop-color="#FFA900"/>
</linearGradient>
<linearGradient id="paint3_linear_6_4" x1="830.75" y1="-118" x2="830.75" y2="772" gradientUnits="userSpaceOnUse">
<stop stop-color="#BD4C1C"/>
<stop offset="1" stop-color="#FFA900"/>
</linearGradient>
<linearGradient id="paint4_linear_6_4" x1="877.75" y1="-149" x2="877.75" y2="741" gradientUnits="userSpaceOnUse">
<stop stop-color="#BD4C1C"/>
<stop offset="1" stop-color="#FFA900"/>
</linearGradient>
<linearGradient id="paint5_linear_6_4" x1="916.75" y1="-199" x2="916.75" y2="691" gradientUnits="userSpaceOnUse">
<stop stop-color="#BD4C1C"/>
<stop offset="1" stop-color="#FFA900"/>
</linearGradient>
<linearGradient id="paint6_linear_6_4" x1="966.75" y1="-230" x2="966.75" y2="660" gradientUnits="userSpaceOnUse">
<stop stop-color="#BD4C1C"/>
<stop offset="1" stop-color="#FFA900"/>
</linearGradient>
<linearGradient id="paint7_linear_6_4" x1="1023.75" y1="-262" x2="1023.75" y2="628" gradientUnits="userSpaceOnUse">
<stop stop-color="#BD4C1C"/>
<stop offset="1" stop-color="#FFA900"/>
</linearGradient>
<linearGradient id="paint8_linear_6_4" x1="1089.75" y1="-290" x2="1089.75" y2="600" gradientUnits="userSpaceOnUse">
<stop stop-color="#BD4C1C"/>
<stop offset="1" stop-color="#FFA900"/>
</linearGradient>
<linearGradient id="paint9_linear_6_4" x1="1141.75" y1="-319" x2="1141.75" y2="571" gradientUnits="userSpaceOnUse">
<stop stop-color="#BD4C1C"/>
<stop offset="1" stop-color="#FFA900"/>
</linearGradient>
<linearGradient id="paint10_linear_6_4" x1="1199.75" y1="-340" x2="1199.75" y2="550" gradientUnits="userSpaceOnUse">
<stop stop-color="#BD4C1C"/>
<stop offset="1" stop-color="#FFA900"/>
</linearGradient>
<linearGradient id="paint11_linear_6_4" x1="1249.75" y1="-364" x2="1249.75" y2="526" gradientUnits="userSpaceOnUse">
<stop stop-color="#BD4C1C"/>
<stop offset="1" stop-color="#FFA900"/>
</linearGradient>
<linearGradient id="paint12_linear_6_4" x1="1283.75" y1="-395" x2="1283.75" y2="495" gradientUnits="userSpaceOnUse">
<stop stop-color="#BD4C1C"/>
<stop offset="1" stop-color="#FFA900"/>
</linearGradient>
<linearGradient id="paint13_linear_6_4" x1="648.75" y1="32" x2="648.75" y2="922" gradientUnits="userSpaceOnUse">
<stop stop-color="#BD4C1C"/>
<stop offset="1" stop-color="#FFA900"/>
</linearGradient>
<linearGradient id="paint14_linear_6_4" x1="593.75" y1="66" x2="593.75" y2="956" gradientUnits="userSpaceOnUse">
<stop stop-color="#BD4C1C"/>
<stop offset="1" stop-color="#FFA900"/>
</linearGradient>
<linearGradient id="paint15_linear_6_4" x1="559.75" y1="105" x2="559.75" y2="995" gradientUnits="userSpaceOnUse">
<stop stop-color="#BD4C1C"/>
<stop offset="1" stop-color="#FFA900"/>
</linearGradient>
<linearGradient id="paint16_linear_6_4" x1="509.75" y1="155" x2="509.75" y2="1045" gradientUnits="userSpaceOnUse">
<stop stop-color="#BD4C1C"/>
<stop offset="1" stop-color="#FFA900"/>
</linearGradient>
<linearGradient id="paint17_linear_6_4" x1="467.75" y1="199" x2="467.75" y2="1089" gradientUnits="userSpaceOnUse">
<stop stop-color="#BD4C1C"/>
<stop offset="1" stop-color="#FFA900"/>
</linearGradient>
<linearGradient id="paint18_linear_6_4" x1="430.75" y1="246" x2="430.75" y2="1136" gradientUnits="userSpaceOnUse">
<stop stop-color="#BD4C1C"/>
<stop offset="1" stop-color="#FFA900"/>
</linearGradient>
<linearGradient id="paint19_linear_6_4" x1="399.75" y1="296" x2="399.75" y2="1186" gradientUnits="userSpaceOnUse">
<stop stop-color="#BD4C1C"/>
<stop offset="1" stop-color="#FFA900"/>
</linearGradient>
<linearGradient id="paint20_linear_6_4" x1="352.75" y1="351" x2="352.75" y2="1241" gradientUnits="userSpaceOnUse">
<stop stop-color="#BD4C1C"/>
<stop offset="1" stop-color="#FFA900"/>
</linearGradient>
<linearGradient id="paint21_linear_6_4" x1="313.75" y1="393" x2="313.75" y2="1283" gradientUnits="userSpaceOnUse">
<stop stop-color="#BD4C1C"/>
<stop offset="1" stop-color="#FFA900"/>
</linearGradient>
<linearGradient id="paint22_linear_6_4" x1="1312.75" y1="-423" x2="1312.75" y2="467" gradientUnits="userSpaceOnUse">
<stop stop-color="#BD4C1C"/>
<stop offset="1" stop-color="#FFA900"/>
</linearGradient>
<linearGradient id="paint23_linear_6_4" x1="276.75" y1="440" x2="276.75" y2="1330" gradientUnits="userSpaceOnUse">
<stop stop-color="#BD4C1C"/>
<stop offset="1" stop-color="#FFA900"/>
</linearGradient>
<linearGradient id="paint24_linear_6_4" x1="187.75" y1="446" x2="187.75" y2="1336" gradientUnits="userSpaceOnUse">
<stop stop-color="#BD4C1C"/>
<stop offset="1" stop-color="#FFA900"/>
</linearGradient>
<linearGradient id="paint25_linear_6_4" x1="156.75" y1="477" x2="156.75" y2="1367" gradientUnits="userSpaceOnUse">
<stop stop-color="#BD4C1C"/>
<stop offset="1" stop-color="#FFA900"/>
</linearGradient>
<linearGradient id="paint26_linear_6_4" x1="509.75" y1="155" x2="509.75" y2="1045" gradientUnits="userSpaceOnUse">
<stop stop-color="#BD4C1C"/>
<stop offset="1" stop-color="#FFA900"/>
</linearGradient>
<linearGradient id="paint27_linear_6_4" x1="671.5" y1="0" x2="671.5" y2="885" gradientUnits="userSpaceOnUse">
<stop stop-color="#BD4C1C"/>
<stop offset="1" stop-color="#FFA900"/>
</linearGradient>
<linearGradient id="paint28_linear_6_4" x1="637.5" y1="-50" x2="637.5" y2="835" gradientUnits="userSpaceOnUse">
<stop stop-color="#BD4C1C"/>
<stop offset="1" stop-color="#FFA900"/>
</linearGradient>
<linearGradient id="paint29_linear_6_4" x1="597.5" y1="-84" x2="597.5" y2="801" gradientUnits="userSpaceOnUse">
<stop stop-color="#BD4C1C"/>
<stop offset="1" stop-color="#FFA900"/>
</linearGradient>
<linearGradient id="paint30_linear_6_4" x1="566.5" y1="-123" x2="566.5" y2="762" gradientUnits="userSpaceOnUse">
<stop stop-color="#BD4C1C"/>
<stop offset="1" stop-color="#FFA900"/>
</linearGradient>
<linearGradient id="paint31_linear_6_4" x1="545.5" y1="-164" x2="545.5" y2="721" gradientUnits="userSpaceOnUse">
<stop stop-color="#BD4C1C"/>
<stop offset="1" stop-color="#FFA900"/>
</linearGradient>
<linearGradient id="paint32_linear_6_4" x1="506.5" y1="-214" x2="506.5" y2="671" gradientUnits="userSpaceOnUse">
<stop stop-color="#BD4C1C"/>
<stop offset="1" stop-color="#FFA900"/>
</linearGradient>
<linearGradient id="paint33_linear_6_4" x1="470.5" y1="-263" x2="470.5" y2="622" gradientUnits="userSpaceOnUse">
<stop stop-color="#BD4C1C"/>
<stop offset="1" stop-color="#FFA900"/>
</linearGradient>
<linearGradient id="paint34_linear_6_4" x1="434.5" y1="-301" x2="434.5" y2="584" gradientUnits="userSpaceOnUse">
<stop stop-color="#BD4C1C"/>
<stop offset="1" stop-color="#FFA900"/>
</linearGradient>
<linearGradient id="paint35_linear_6_4" x1="375.5" y1="-344" x2="375.5" y2="541" gradientUnits="userSpaceOnUse">
<stop stop-color="#BD4C1C"/>
<stop offset="1" stop-color="#FFA900"/>
</linearGradient>
<linearGradient id="paint36_linear_6_4" x1="313.5" y1="-378" x2="313.5" y2="507" gradientUnits="userSpaceOnUse">
<stop stop-color="#BD4C1C"/>
<stop offset="1" stop-color="#FFA900"/>
</linearGradient>
<linearGradient id="paint37_linear_6_4" x1="274.5" y1="-399" x2="274.5" y2="486" gradientUnits="userSpaceOnUse">
<stop stop-color="#BD4C1C"/>
<stop offset="1" stop-color="#FFA900"/>
</linearGradient>
<linearGradient id="paint38_linear_6_4" x1="227.5" y1="-419" x2="227.5" y2="466" gradientUnits="userSpaceOnUse">
<stop stop-color="#BD4C1C"/>
<stop offset="1" stop-color="#FFA900"/>
</linearGradient>
<linearGradient id="paint39_linear_6_4" x1="180.5" y1="-442" x2="180.5" y2="443" gradientUnits="userSpaceOnUse">
<stop stop-color="#BD4C1C"/>
<stop offset="1" stop-color="#FFA900"/>
</linearGradient>
<linearGradient id="paint40_linear_6_4" x1="139.5" y1="-465" x2="139.5" y2="420" gradientUnits="userSpaceOnUse">
<stop stop-color="#BD4C1C"/>
<stop offset="1" stop-color="#FFA900"/>
</linearGradient>
<linearGradient id="paint41_linear_6_4" x1="713.5" y1="24" x2="713.5" y2="909" gradientUnits="userSpaceOnUse">
<stop stop-color="#BD4C1C"/>
<stop offset="1" stop-color="#FFA900"/>
</linearGradient>
<linearGradient id="paint42_linear_6_4" x1="742.5" y1="61" x2="742.5" y2="946" gradientUnits="userSpaceOnUse">
<stop stop-color="#BD4C1C"/>
<stop offset="1" stop-color="#FFA900"/>
</linearGradient>
<linearGradient id="paint43_linear_6_4" x1="766.5" y1="99" x2="766.5" y2="984" gradientUnits="userSpaceOnUse">
<stop stop-color="#BD4C1C"/>
<stop offset="1" stop-color="#FFA900"/>
</linearGradient>
<linearGradient id="paint44_linear_6_4" x1="795.5" y1="141" x2="795.5" y2="1026" gradientUnits="userSpaceOnUse">
<stop stop-color="#BD4C1C"/>
<stop offset="1" stop-color="#FFA900"/>
</linearGradient>
<linearGradient id="paint45_linear_6_4" x1="824.5" y1="180" x2="824.5" y2="1065" gradientUnits="userSpaceOnUse">
<stop stop-color="#BD4C1C"/>
<stop offset="1" stop-color="#FFA900"/>
</linearGradient>
<linearGradient id="paint46_linear_6_4" x1="884.5" y1="204" x2="884.5" y2="1089" gradientUnits="userSpaceOnUse">
<stop stop-color="#BD4C1C"/>
<stop offset="1" stop-color="#FFA900"/>
</linearGradient>
<linearGradient id="paint47_linear_6_4" x1="928.5" y1="248" x2="928.5" y2="1133" gradientUnits="userSpaceOnUse">
<stop stop-color="#BD4C1C"/>
<stop offset="1" stop-color="#FFA900"/>
</linearGradient>
<linearGradient id="paint48_linear_6_4" x1="959.5" y1="287" x2="959.5" y2="1172" gradientUnits="userSpaceOnUse">
<stop stop-color="#BD4C1C"/>
<stop offset="1" stop-color="#FFA900"/>
</linearGradient>
<linearGradient id="paint49_linear_6_4" x1="998.5" y1="334" x2="998.5" y2="1219" gradientUnits="userSpaceOnUse">
<stop stop-color="#BD4C1C"/>
<stop offset="1" stop-color="#FFA900"/>
</linearGradient>
<linearGradient id="paint50_linear_6_4" x1="1029.5" y1="381" x2="1029.5" y2="1266" gradientUnits="userSpaceOnUse">
<stop stop-color="#BD4C1C"/>
<stop offset="1" stop-color="#FFA900"/>
</linearGradient>
<linearGradient id="paint51_linear_6_4" x1="1060.5" y1="420" x2="1060.5" y2="1305" gradientUnits="userSpaceOnUse">
<stop stop-color="#BD4C1C"/>
<stop offset="1" stop-color="#FFA900"/>
</linearGradient>
<linearGradient id="paint52_linear_6_4" x1="1119.5" y1="443" x2="1119.5" y2="1328" gradientUnits="userSpaceOnUse">
<stop stop-color="#BD4C1C"/>
<stop offset="1" stop-color="#FFA900"/>
</linearGradient>
<linearGradient id="paint53_linear_6_4" x1="1156.5" y1="467" x2="1156.5" y2="1352" gradientUnits="userSpaceOnUse">
<stop stop-color="#BD4C1C"/>
<stop offset="1" stop-color="#FFA900"/>
</linearGradient>
<linearGradient id="paint54_linear_6_4" x1="1177.5" y1="503" x2="1177.5" y2="1388" gradientUnits="userSpaceOnUse">
<stop stop-color="#BD4C1C"/>
<stop offset="1" stop-color="#FFA900"/>
</linearGradient>
<clipPath id="clip0_6_4">
<rect width="1375" height="885" fill="white"/>
</clipPath>
</defs>
</svg>
